<?xml version="1.0" encoding="UTF-8" standalone="no"?>
<!DOCTYPE svg PUBLIC "-//W3C//DTD SVG 1.1//EN" "http://www.w3.org/Graphics/SVG/1.1/DTD/svg11.dtd">
<svg width="100%" height="100%" viewBox="0 0 280 280" version="1.1" xmlns="http://www.w3.org/2000/svg" xmlns:xlink="http://www.w3.org/1999/xlink" xml:space="preserve" xmlns:serif="http://www.serif.com/" style="fill-rule:evenodd;clip-rule:evenodd;stroke-linejoin:round;stroke-miterlimit:2;">
    <g transform="matrix(0.238775,0,0,0.238775,-85.0026,-86.9633)">
        <path d="M548.154,1019L371.685,1019C363.025,1019 355.995,1011.97 355.995,1003.31L355.995,925.863C355.995,917.203 363.025,910.172 371.685,910.172L548.154,910.172C574.717,716.288 741.19,566.721 942.321,566.721C1143.45,566.721 1309.92,716.288 1336.49,910.172L1512.96,910.172C1521.62,910.172 1528.65,917.203 1528.65,925.863L1528.65,1003.31C1528.65,1011.97 1521.62,1019 1512.96,1019L1336.49,1019C1309.92,1212.88 1143.45,1362.45 942.321,1362.45C741.19,1362.45 574.717,1212.88 548.154,1019ZM1225.7,910.172C1200.23,776.912 1082.96,676.069 942.321,676.069C801.684,676.069 684.414,776.912 658.938,910.172L1225.7,910.172ZM658.938,1019C684.414,1152.26 801.684,1253.1 942.321,1253.1C1082.96,1253.1 1200.23,1152.26 1225.7,1019L658.938,1019Z" style="fill:rgb(66,139,172);"/>
    </g>
</svg>
