<?xml version="1.0" encoding="UTF-8" standalone="no"?>
<!DOCTYPE svg PUBLIC "-//W3C//DTD SVG 1.1//EN" "http://www.w3.org/Graphics/SVG/1.1/DTD/svg11.dtd">
<svg width="100%" height="100%" viewBox="0 0 1890 1890" version="1.1" xmlns="http://www.w3.org/2000/svg" xmlns:xlink="http://www.w3.org/1999/xlink" xml:space="preserve" xmlns:serif="http://www.serif.com/" style="fill-rule:evenodd;clip-rule:evenodd;stroke-linecap:round;stroke-linejoin:round;stroke-miterlimit:1.5;">
    <g transform="matrix(1,0,0,1,0,12.6747)">
        <g transform="matrix(1,0,0,1,-5.13204,-32.3778)">
            <circle cx="942.321" cy="964.585" r="397.864" style="fill:white;stroke:white;stroke-width:37.5px;"/>
        </g>
        <g transform="matrix(0.934416,0,0,0.9188,48.5388,-171.986)">
            <path d="M1689.81,1080.7L1689.81,1350.44C1689.81,1380.61 1665.73,1405.1 1636.07,1405.1L282.436,1405.1C252.777,1405.1 228.699,1380.61 228.699,1350.44L228.699,1080.7C228.699,1050.54 252.777,1026.05 282.436,1026.05L1636.07,1026.05C1665.73,1026.05 1689.81,1050.54 1689.81,1080.7Z" style="fill:rgb(35,31,32);stroke:white;stroke-width:35.97px;"/>
        </g>
        <g transform="matrix(1,0,0,1,-5.13204,-32.3778)">
            <circle cx="942.321" cy="964.585" r="397.864" style="fill:rgb(9,0,2);stroke:rgb(10,0,2);stroke-width:25px;"/>
        </g>
        <g transform="matrix(1,0,0,1,-0.642444,81.2623)">
            <g transform="matrix(0.934416,0,0,0.9188,49.1813,-253.248)">
                <path d="M1689.81,1080.7L1689.81,1350.44C1689.81,1380.61 1665.73,1405.1 1636.07,1405.1L282.436,1405.1C252.777,1405.1 228.699,1380.61 228.699,1350.44L228.699,1080.7C228.699,1050.54 252.777,1026.05 282.436,1026.05L1636.07,1026.05C1665.73,1026.05 1689.81,1050.54 1689.81,1080.7Z" style="fill:white;stroke:black;stroke-width:26.98px;"/>
            </g>
            <g transform="matrix(1,0,0,1,5.25489,4.15106)">
                <g transform="matrix(1.15023,0,0,1.09923,-442.874,-635.074)">
                    <path d="M705.099,1274.71L791.343,1274.71C805.408,1274.71 816.729,1278.68 825.307,1286.6C833.885,1294.53 838.174,1304.96 838.174,1317.89L838.174,1334.88C838.174,1343.29 835.894,1350.61 831.335,1356.83C826.775,1363.06 820.168,1367.79 811.513,1371.02L811.513,1371.51C816.459,1374.9 820.207,1378.79 822.757,1383.15C825.307,1387.52 827.819,1393.58 830.292,1401.35L843.274,1444.53L810.122,1444.53L797.834,1404.26C795.825,1397.3 793.043,1392.13 789.488,1388.73C785.933,1385.34 781.528,1383.64 776.273,1383.64L737.093,1383.64L737.093,1444.53L705.099,1444.53L705.099,1274.71ZM785.315,1354.77C791.807,1354.77 796.907,1352.95 800.616,1349.31C804.326,1345.67 806.181,1340.94 806.181,1335.12L806.181,1319.35C806.181,1314.66 804.789,1310.9 802.007,1308.07C799.225,1305.24 795.516,1303.83 790.879,1303.83L737.093,1303.83L737.093,1354.77L785.315,1354.77Z" style="fill:rgb(35,31,32);fill-rule:nonzero;"/>
                </g>
                <g transform="matrix(1.15023,0,0,1.09923,-442.874,-635.074)">
                    <path d="M953.397,1446.47C941.187,1446.47 930.407,1443.76 921.056,1438.34C911.705,1432.92 904.441,1425.32 899.263,1415.54C894.085,1405.75 891.497,1394.39 891.497,1381.45L891.497,1337.79C891.497,1324.85 894.085,1313.49 899.263,1303.7C904.441,1293.92 911.705,1286.32 921.056,1280.9C930.407,1275.48 941.187,1272.77 953.397,1272.77L977.972,1272.77C990.182,1272.77 1000.96,1275.48 1010.31,1280.9C1019.66,1286.32 1026.93,1293.92 1032.11,1303.7C1037.28,1313.49 1039.87,1324.85 1039.87,1337.79L1039.87,1381.45C1039.87,1394.39 1037.28,1405.75 1032.11,1415.54C1026.93,1425.32 1019.66,1432.92 1010.31,1438.34C1000.96,1443.76 990.182,1446.47 977.972,1446.47L953.397,1446.47ZM977.972,1416.87C986.936,1416.87 994.162,1413.48 999.649,1406.68C1005.14,1399.89 1007.88,1391 1007.88,1380L1007.88,1339.24C1007.88,1328.25 1005.14,1319.35 999.649,1312.56C994.162,1305.77 986.936,1302.37 977.972,1302.37L953.397,1302.37C944.433,1302.37 937.207,1305.77 931.72,1312.56C926.234,1319.35 923.49,1328.25 923.49,1339.24L923.49,1380C923.49,1391 926.234,1399.89 931.72,1406.68C937.207,1413.48 944.433,1416.87 953.397,1416.87L977.972,1416.87Z" style="fill:rgb(35,31,32);fill-rule:nonzero;"/>
                </g>
                <g transform="matrix(1.15023,0,0,1.09923,-442.874,-635.074)">
                    <path d="M1131.22,1303.83L1079.75,1303.83L1079.75,1274.71L1214.68,1274.71L1214.68,1303.83L1163.21,1303.83L1163.21,1444.53L1131.22,1444.53L1131.22,1303.83Z" style="fill:rgb(35,31,32);fill-rule:nonzero;"/>
                </g>
                <g transform="matrix(1.15023,0,0,1.09923,-442.874,-635.074)">
                    <rect x="1268.93" y="1274.71" width="31.994" height="169.815" style="fill:rgb(35,31,32);fill-rule:nonzero;"/>
                </g>
                <g transform="matrix(1.15023,0,0,1.09923,-442.874,-635.074)">
                    <path d="M1424.03,1446.47C1411.82,1446.47 1401.04,1443.76 1391.69,1438.34C1382.34,1432.92 1375.07,1425.32 1369.89,1415.54C1364.71,1405.75 1362.13,1394.39 1362.13,1381.45L1362.13,1337.79C1362.13,1324.85 1364.71,1313.49 1369.89,1303.7C1375.07,1293.92 1382.34,1286.32 1391.69,1280.9C1401.04,1275.48 1411.82,1272.77 1424.03,1272.77L1448.6,1272.77C1460.81,1272.77 1471.59,1275.48 1480.94,1280.9C1490.29,1286.32 1497.56,1293.92 1502.74,1303.7C1507.91,1313.49 1510.5,1324.85 1510.5,1337.79L1510.5,1381.45C1510.5,1394.39 1507.91,1405.75 1502.74,1415.54C1497.56,1425.32 1490.29,1432.92 1480.94,1438.34C1471.59,1443.76 1460.81,1446.47 1448.6,1446.47L1424.03,1446.47ZM1448.6,1416.87C1457.57,1416.87 1464.79,1413.48 1470.28,1406.68C1475.77,1399.89 1478.51,1391 1478.51,1380L1478.51,1339.24C1478.51,1328.25 1475.77,1319.35 1470.28,1312.56C1464.79,1305.77 1457.57,1302.37 1448.6,1302.37L1424.03,1302.37C1415.06,1302.37 1407.84,1305.77 1402.35,1312.56C1396.86,1319.35 1394.12,1328.25 1394.12,1339.24L1394.12,1380C1394.12,1391 1396.86,1399.89 1402.35,1406.68C1407.84,1413.48 1415.06,1416.87 1424.03,1416.87L1448.6,1416.87Z" style="fill:rgb(35,31,32);fill-rule:nonzero;"/>
                </g>
                <g transform="matrix(1.15023,0,0,1.09923,-442.874,-635.074)">
                    <path d="M1569.39,1274.71L1597.9,1274.71L1675.8,1390.19L1675.8,1274.71L1707.1,1274.71L1707.1,1444.53L1678.58,1444.53L1600.69,1329.06L1600.69,1444.53L1569.39,1444.53L1569.39,1274.71Z" style="fill:rgb(35,31,32);fill-rule:nonzero;"/>
                </g>
                <g transform="matrix(1.02595,0,0,1,-60.486,-367.547)">
                    <rect x="1369.84" y="1298.42" width="51.731" height="21.956" style="fill:rgb(35,31,32);"/>
                </g>
                <g transform="matrix(1.02595,0,0,1,-404.977,-367.547)">
                    <rect x="1369.84" y="1298.42" width="51.731" height="21.956" style="fill:rgb(35,31,32);"/>
                </g>
                <g transform="matrix(1.02595,0,0,1,-563.395,-367.547)">
                    <rect x="1369.84" y="1298.42" width="51.731" height="21.956" style="fill:rgb(35,31,32);"/>
                </g>
                <g transform="matrix(1.02595,0,0,1,-1053.57,-367.547)">
                    <rect x="1369.84" y="1298.42" width="51.731" height="21.956" style="fill:rgb(35,31,32);"/>
                </g>
                <g transform="matrix(1.02885,0,0,1,58.1375,-532.412)">
                    <rect x="1369.84" y="1298.42" width="51.731" height="21.956" style="fill:rgb(35,31,32);"/>
                </g>
                <g transform="matrix(1.01683,0,0,1,-47.9957,-532.412)">
                    <rect x="1369.84" y="1298.42" width="51.731" height="21.956" style="fill:rgb(35,31,32);"/>
                </g>
                <g transform="matrix(1.01683,0,0,1,-392.015,-532.412)">
                    <rect x="1369.84" y="1298.42" width="51.731" height="21.956" style="fill:rgb(35,31,32);"/>
                </g>
            </g>
        </g>
    </g>
</svg>
